HIERARCHY
ROOT Hips
{
	OFFSET 0.000000 0.000000 0.000000 
	CHANNELS 6 Xposition Yposition Zposition Zrotation Yrotation Xrotation
	JOINT LeftUpLeg
	{
		OFFSET 1.363060 -1.794630 0.839290 
		CHANNELS 3 Zrotation Yrotation Xrotation
		JOINT LeftLeg
		{
			OFFSET 2.448110 -6.726130 0.000000 
			CHANNELS 3 Zrotation Yrotation Xrotation
			JOINT LeftFoot
			{
				OFFSET 2.562200 -7.039590 0.000000 
				CHANNELS 3 Zrotation Yrotation Xrotation
				JOINT LeftToeBase
				{
					OFFSET 0.157640 -0.433110 2.322550 
					CHANNELS 3 Zrotation Yrotation Xrotation
					End Site
					{
						OFFSET 0.000000 0.000000 0.000000 
					}
				}
			}
		}
	}
	JOINT RightUpLeg
	{
		OFFSET -1.305520 -1.794630 0.839290 
		CHANNELS 3 Zrotation Yrotation Xrotation
		JOINT RightLeg
		{
			OFFSET -2.542530 -6.985550 0.000000 
			CHANNELS 3 Zrotation Yrotation Xrotation
			JOINT RightFoot
			{
				OFFSET -2.568260 -7.056230 0.000000 
				CHANNELS 3 Zrotation Yrotation Xrotation
				JOINT RightToeBase
				{
					OFFSET -0.164730 -0.452590 2.363150 
					CHANNELS 3 Zrotation Yrotation Xrotation
					End Site
					{
						OFFSET 0.000000 0.000000 0.000000 
					}
				}
			}
		}
	}
	JOINT Spine
	{
		OFFSET 0.028270 2.035590 -0.193380 
		CHANNELS 3 Zrotation Yrotation Xrotation
		JOINT Spine1
		{
			OFFSET 0.056720 2.048850 -0.042750 
			CHANNELS 3 Zrotation Yrotation Xrotation
			JOINT Neck1
			{
				OFFSET -0.054170 1.746240 0.172020 
				CHANNELS 3 Zrotation Yrotation Xrotation
				JOINT Head
				{
					OFFSET 0.104070 1.761360 -0.123970 
					CHANNELS 3 Zrotation Yrotation Xrotation
					End Site
					{
						OFFSET 0.000000 0.000000 0.000000 
					}
				}
			}
			JOINT LeftArm
			{
				OFFSET 3.362410 1.200890 -0.311210 
				CHANNELS 3 Zrotation Yrotation Xrotation
				JOINT LeftForeArm
				{
					OFFSET 4.983000 -0.000000 -0.000000 
					CHANNELS 3 Zrotation Yrotation Xrotation
					JOINT LeftHand
					{
						OFFSET 3.483560 -0.000000 -0.000000 
						CHANNELS 3 Zrotation Yrotation Xrotation
						JOINT LeftHandIndex1
						{
							OFFSET 0.715260 -0.000000 -0.000000 
							CHANNELS 3 Zrotation Yrotation Xrotation
							End Site
							{
								OFFSET 0.000000 0.000000 0.000000 
							}
						}
					}
				}
			}
			JOINT RightArm
			{
				OFFSET -3.136600 1.374050 -0.404650 
				CHANNELS 3 Zrotation Yrotation Xrotation
				JOINT RightForeArm
				{
					OFFSET -5.241900 -0.000000 -0.000000 
					CHANNELS 3 Zrotation Yrotation Xrotation
					JOINT RightHand
					{
						OFFSET -3.444170 -0.000000 -0.000000 
						CHANNELS 3 Zrotation Yrotation Xrotation
						JOINT RightHandIndex1
						{
							OFFSET -0.622530 -0.000000 -0.000000 
							CHANNELS 3 Zrotation Yrotation Xrotation
							End Site
							{
								OFFSET 0.000000 0.000000 0.000000 
							}
						}
					}
				}
			}
		}
	}
}
MOTION
Frames: 12
Frame Time: 0.041667
11.827489 17.506631 -29.087370 3.539915 -34.547154 40.820368 3.450602 -10.042492 -48.713812 -0.239844 8.480911 19.727532 -0.733082 10.196355 4.756738 5.058200 -13.449000 -41.073300 -8.894921 25.081162 -63.848026 -2.125742 -12.183858 31.267395 -0.904436 4.484333 -8.336936 -1.210300 6.979100 -19.653400 1.780007 -3.731397 -5.257385 3.173604 -0.562474 -19.804262 -6.951114 18.044515 -12.376512 -11.119300 6.037300 -5.700000 -48.524521 -12.397731 -1.043813 98.487461 -57.041060 -75.305035 2.113310 -1.938837 -22.599705 -7.125000 0.000000 0.000000 54.493787 -4.590105 -14.813211 -17.885293 21.928034 -5.290317 -1.639248 -0.162508 -9.364802 7.125000 0.000000 0.000000 
11.857303 17.506631 -29.052838 3.683456 -34.497567 40.757845 3.428090 -10.416786 -48.763643 -0.230591 8.532676 19.862584 -0.752506 10.314403 4.621135 5.081100 -13.474500 -41.171800 -8.949725 24.794578 -63.630736 -2.088511 -12.123686 31.061822 -0.910074 4.477867 -8.416669 -1.312700 7.257300 -20.479800 1.814978 -3.854201 -5.287533 3.296832 -0.574072 -19.870796 -6.806487 17.936965 -12.460048 -11.007500 6.017100 -5.941800 -50.002772 -11.743331 -0.834580 99.042918 -57.077816 -75.700370 2.114560 -1.928189 -22.760052 -7.125000 0.000000 0.000000 53.211671 -4.265689 -15.625249 -17.347030 21.423696 -5.163295 -1.694715 -0.265192 -8.844741 7.125000 0.000000 0.000000 
11.879489 17.511550 -29.016197 3.503640 -34.518421 40.733038 3.458244 -10.507808 -48.664061 -0.204352 8.608993 20.078959 -0.781596 10.451267 4.473006 5.313700 -13.728600 -42.161000 -8.718639 24.765738 -63.237639 -2.046063 -12.044805 30.832163 -0.919850 4.537424 -8.447536 -1.349400 7.353900 -20.768200 1.831124 -3.778518 -5.268942 3.209098 -0.561811 -19.660879 -6.772548 17.968152 -12.389492 -10.958700 6.013400 -5.700400 -51.092783 -11.535010 -0.665168 98.956544 -57.070792 -75.583877 2.112347 -1.918420 -22.915273 -7.125000 0.000000 0.000000 52.243777 -4.002577 -15.214418 -17.555082 21.574170 -5.140904 -1.591674 -0.183741 -10.144392 7.125000 0.000000 0.000000 
11.905188 17.502314 -28.986181 3.107314 -34.456046 41.037520 3.544086 -10.241081 -48.856866 -0.181303 8.667600 20.230383 -0.787021 10.338365 4.159251 5.307000 -13.721400 -42.132600 -8.603536 24.959509 -63.170976 -2.003227 -11.976094 30.630144 -0.894648 4.282953 -8.450525 -1.361600 7.385800 -20.863500 1.858550 -3.717750 -5.267370 3.193070 -0.534906 -19.527701 -6.374675 17.845890 -12.330302 -10.693500 6.003600 -5.916300 -52.141888 -10.948289 -0.629825 99.081572 -57.128346 -75.596949 2.106279 -1.859995 -23.027726 -7.125000 0.000000 0.000000 51.154713 -3.985113 -14.109530 -17.567925 21.615932 -5.112611 -1.493976 -0.193899 -11.841634 7.125000 0.000000 0.000000 
11.934902 17.500909 -28.959378 2.882203 -34.184378 41.165799 3.569445 -10.125202 -49.002898 -0.165492 8.712627 20.350656 -0.767465 10.015381 3.788050 5.064600 -13.456200 -41.101000 -8.423029 24.938280 -62.907236 -1.959927 -11.911779 30.434555 -0.867643 3.951496 -8.559362 -1.434100 7.571800 -21.420800 1.839309 -3.389649 -5.256029 2.765040 -0.452508 -19.433347 -6.261349 17.419239 -12.131743 -10.725200 5.791800 -5.758100 -53.023682 -10.858160 0.215463 99.293198 -57.123189 -75.665067 2.100512 -1.803867 -23.226539 -7.125000 0.000000 0.000000 50.338419 -4.011867 -15.116643 -17.378077 21.434334 -5.052450 -1.471833 -0.218143 -11.673164 7.125000 0.000000 0.000000 
11.961705 17.513557 -28.938498 2.931426 -33.690810 40.871225 3.420605 -10.193408 -49.011942 -0.146726 8.756723 20.498077 -0.699818 9.476496 3.771220 5.033000 -13.420800 -40.964900 -8.102661 24.691804 -62.212209 -1.916707 -11.835658 30.218642 -0.851472 3.729748 -8.634056 -1.419800 7.535500 -21.311800 1.864198 -3.349391 -5.269322 2.661911 -0.440016 -19.655883 -6.231872 17.162126 -12.161790 -10.712900 5.675600 -5.767000 -54.060092 -10.345689 0.851106 99.779783 -57.134694 -75.970818 2.088572 -1.769249 -23.830080 -7.125000 0.000000 0.000000 49.400095 -3.721671 -16.291172 -17.093995 21.081181 -4.928024 -1.462936 -0.239275 -11.195414 7.125000 0.000000 0.000000 
11.987002 17.515063 -28.913702 2.931912 -33.466120 40.844581 3.306788 -10.210007 -49.202994 -0.125249 8.824339 20.689083 -0.670306 9.171735 3.570733 4.954100 -13.331900 -40.623800 -8.032309 24.529334 -61.863610 -1.861512 -11.729039 29.899367 -0.845059 3.731751 -8.460627 -1.348900 7.352700 -20.764600 1.869241 -3.342573 -5.288850 2.547499 -0.439212 -19.715808 -6.064686 17.059884 -12.171313 -10.586400 5.644400 -5.822300 -54.989438 -9.640427 1.244139 100.221413 -57.175221 -76.251232 2.078576 -1.738289 -24.295607 -7.125000 0.000000 0.000000 48.466522 -3.456525 -16.985369 -16.775470 20.733844 -4.805972 -1.463004 -0.258171 -10.793211 7.125000 0.000000 0.000000 
12.009489 17.524299 -28.879370 2.901492 -33.412191 40.659384 3.285902 -10.431850 -49.003217 -0.104961 8.889596 20.891192 -0.704147 9.212837 3.118770 4.717600 -13.058500 -39.587800 -8.054542 24.592113 -61.261419 -1.814200 -11.621555 29.607058 -0.838219 3.647335 -8.454039 -1.338600 7.325600 -20.683600 1.870248 -3.299906 -5.285511 2.471722 -0.413419 -19.730547 -5.889753 16.928614 -12.160857 -10.481100 5.595200 -5.881200 -56.016559 -8.946334 1.478470 100.392846 -57.217751 -76.319742 2.071578 -1.702327 -24.436690 -7.125000 0.000000 0.000000 47.470156 -3.345396 -17.120095 -16.593631 20.527157 -4.709260 -1.397971 -0.275437 -10.940022 7.125000 0.000000 0.000000 
12.031774 17.542569 -28.831687 2.742133 -33.308299 40.411163 3.535573 -10.953940 -48.569198 -0.068704 8.984080 21.172416 -0.773493 9.527410 2.657159 4.471200 -12.762300 -38.485100 -7.964642 24.794131 -60.405224 -1.756175 -11.493413 29.272085 -0.817049 3.358105 -8.595215 -1.344900 7.342100 -20.732900 1.861427 -3.133188 -5.260009 2.222591 -0.368836 -19.708837 -5.750009 16.628616 -12.102571 -10.426100 5.459200 -5.900100 -56.989689 -8.402433 2.025881 100.419921 -57.241798 -76.263059 2.059805 -1.684919 -24.929192 -7.125000 0.000000 0.000000 46.599706 -3.276858 -17.406280 -16.539648 20.446220 -4.662525 -1.295451 -0.308410 -11.221343 7.125000 0.000000 0.000000 
12.051350 17.542870 -28.826668 2.668349 -32.907212 40.816717 3.465051 -10.608715 -49.433800 -0.012884 9.116755 21.501940 -0.628754 8.676131 3.077368 4.440100 -12.724100 -38.344200 -8.156944 24.865430 -60.523663 -1.691315 -11.394297 28.952666 -0.745217 2.724161 -8.555367 -1.317600 7.270300 -20.518700 1.850570 -2.942357 -5.267815 1.908890 -0.331001 -19.491238 -5.694744 16.247725 -12.010888 -10.483500 5.245300 -5.781700 -57.476822 -8.209125 2.906187 99.841269 -57.234721 -75.796978 2.065110 -1.704518 -25.759542 -7.125000 0.000000 0.000000 46.045175 -3.148774 -18.499613 -16.403226 20.319676 -4.667017 -1.273697 -0.422176 -11.080486 7.125000 0.000000 0.000000 
12.069319 17.550600 -28.806892 2.549463 -32.618073 40.839040 3.357136 -10.380045 -49.705236 0.030822 9.208046 21.765108 -0.542701 8.103959 3.334711 5.017100 -13.403000 -40.896400 -8.098119 24.988794 -60.148163 -1.636041 -11.293468 28.668324 -0.693257 2.240956 -8.590791 -1.350600 7.357100 -20.777700 1.887831 -2.958372 -5.257910 1.930175 -0.336682 -19.364888 -5.709985 16.290433 -12.041690 -10.491900 5.254500 -5.775700 -58.107797 -7.667381 3.155298 99.188354 -57.257944 -75.291251 2.074107 -1.701973 -26.364418 -7.125000 0.000000 0.000000 44.974446 -2.724626 -19.322119 -15.983797 19.873872 -4.550512 -1.245230 -0.556037 -10.210608 7.125000 0.000000 0.000000 
12.087991 17.561040 -28.776073 2.431954 -32.444259 40.757393 3.253079 -10.261383 -49.702820 0.055370 9.253294 21.916923 -0.498092 7.730932 3.371777 5.206300 -13.612400 -41.706600 -8.010967 25.086522 -59.702528 -1.603863 -11.226032 28.495695 -0.662157 1.930554 -8.673170 -1.426300 7.551900 -21.361100 1.915967 -2.919724 -5.281232 1.930252 -0.306796 -19.479493 -5.693903 16.283701 -11.900015 -10.505600 5.270000 -5.650800 -58.947120 -6.836900 3.487774 98.780045 -57.278057 -74.935479 2.071880 -1.696684 -26.449808 -7.125000 0.000000 0.000000 43.908187 -2.478293 -19.610382 -15.770776 19.407646 -4.245431 -0.860934 -0.531408 -9.703428 7.125000 0.000000 0.000000 
